<svg width="60" height="59" viewBox="0 0 60 59" fill="none" xmlns="http://www.w3.org/2000/svg">
<path d="M0 40.5L39.5 0L38 8.5L60 0L0 59L8 41L0 40.5Z" fill="#FFEF00" fill-opacity="0.9"/>
<g filter="url(#filter0_d_82_107)">
<path d="M20.215 33.1669L18.4077 31.2289L14.3267 35.0344L16.134 36.9725L15.6879 37.3885L11.6641 33.0735L12.1102 32.6575L13.9175 34.5956L17.9985 30.79L16.1912 28.852L16.6446 28.4291L20.6684 32.7441L20.215 33.1669ZM21.4599 32.7717L16.6723 27.6376L15.3997 28.8243L17.2138 30.7697L13.952 33.8114L12.1379 31.866L10.8726 33.0459L15.6603 38.18L16.9255 37.0001L15.1114 35.0547L18.3732 32.013L20.1874 33.9584L21.4599 32.7717ZM14.6738 32.7965L16.8605 30.7574L15.0464 28.812L16.6846 27.2843L18.0965 27.3761L23.1842 32.832L21.5898 34.3187L20.175 34.3118L19.0224 33.0758L16.8357 35.1149L18.6498 37.0603L17.0628 38.5403L15.6479 38.5333L10.5193 33.0335L12.1502 31.5127L13.5621 31.6044L14.6738 32.7965ZM26.4646 26.505C26.7474 26.2413 26.9834 25.9666 27.1726 25.6807C27.3621 25.3855 27.4857 25.0879 27.5434 24.788C27.6014 24.4787 27.5815 24.1691 27.4838 23.8591C27.3816 23.5442 27.1828 23.2283 26.8872 22.9114C26.5962 22.5993 26.2948 22.3836 25.983 22.2642C25.676 22.1403 25.3709 22.0966 25.0677 22.1332C24.76 22.1649 24.4546 22.2674 24.1513 22.4408C23.8485 22.6048 23.5556 22.8186 23.2728 23.0823L22.4683 23.8325C22.1807 24.1008 21.9421 24.3825 21.7525 24.6778C21.5633 24.9636 21.4421 25.2589 21.389 25.5637C21.3314 25.8635 21.3512 26.1732 21.4486 26.4926C21.5508 26.8075 21.7474 27.121 22.0384 27.433C22.3339 27.7499 22.6352 27.9703 22.9421 28.0943C23.2495 28.2088 23.557 28.2502 23.8647 28.2185C24.1724 28.1868 24.4754 28.0865 24.7738 27.9177C25.077 27.7443 25.3724 27.5235 25.6601 27.2552L26.4646 26.505ZM25.2782 26.8457C25.0588 27.0503 24.8311 27.2216 24.5951 27.3596C24.3592 27.4975 24.1226 27.586 23.8854 27.6249C23.6437 27.6589 23.4016 27.6339 23.1593 27.55C22.9169 27.466 22.6798 27.2997 22.4479 27.0511C22.2206 26.8073 22.0735 26.5616 22.0067 26.314C21.9399 26.0664 21.9318 25.8232 21.9826 25.5844C22.0383 25.341 22.1432 25.1065 22.2973 24.8808C22.4514 24.655 22.6357 24.4421 22.8503 24.2421L23.6547 23.4919C23.8693 23.2918 24.0945 23.1228 24.3305 22.9848C24.5664 22.8468 24.8053 22.7608 25.047 22.7268C25.2888 22.6928 25.5308 22.7178 25.7732 22.8017C26.0155 22.8856 26.2503 23.0495 26.4777 23.2933C26.705 23.5371 26.8521 23.7828 26.9189 24.0304C26.9906 24.2734 27.0011 24.5144 26.9503 24.7532C26.8995 24.9919 26.797 25.2242 26.6429 25.45C26.4888 25.6757 26.3021 25.8909 26.0827 26.0955L25.2782 26.8457ZM21.5776 27.8627C21.2093 27.4677 20.9588 27.0769 20.8261 26.6902C20.6983 26.299 20.6645 25.9157 20.7247 25.5405C20.7854 25.1558 20.9327 24.7859 21.1668 24.4309C21.4012 24.0665 21.6964 23.7183 22.0523 23.3864L22.8568 22.6362C23.2127 22.3043 23.5782 22.0364 23.9533 21.8325C24.3283 21.6286 24.7051 21.5097 25.0836 21.4757C25.467 21.4373 25.847 21.4977 26.2235 21.6571C26.6049 21.8119 26.9797 22.0868 27.348 22.4817C27.7163 22.8766 27.9643 23.2697 28.0922 23.661C28.2249 24.0477 28.2587 24.4309 28.1935 24.8107C28.1333 25.186 27.9883 25.5535 27.7588 25.9134C27.5293 26.2734 27.2365 26.6193 26.8806 26.9512L26.0761 27.7014C25.7202 28.0333 25.3545 28.3059 24.9792 28.5192C24.6041 28.7231 24.2249 28.8442 23.8415 28.8827C23.4584 28.9118 23.0762 28.8489 22.6948 28.6941C22.3183 28.5347 21.9459 28.2576 21.5776 27.8627ZM21.168 28.2446C21.6 28.7078 22.039 29.0368 22.485 29.2316C22.9313 29.417 23.3768 29.4939 23.8212 29.4622C24.2706 29.426 24.7163 29.293 25.1583 29.0632C25.6006 28.8239 26.0338 28.5065 26.458 28.1109L27.2625 27.3607C27.6867 26.9652 28.0311 26.5574 28.2958 26.1374C28.5559 25.7125 28.7172 25.2795 28.7798 24.8383C28.8473 24.3925 28.8017 23.9428 28.643 23.4892C28.4797 23.0306 28.1822 22.5698 27.7502 22.1066C27.3183 21.6434 26.8816 21.3168 26.4401 21.1269C25.9941 20.9321 25.5464 20.8528 25.097 20.889C24.6525 20.9206 24.2116 21.0538 23.7741 21.2885C23.3322 21.5184 22.8991 21.8311 22.4749 22.2266L21.6704 22.9768C21.2462 23.3724 20.9016 23.7849 20.6366 24.2143C20.372 24.6343 20.2059 25.0672 20.1385 25.5129C20.0759 25.9541 20.1238 26.4063 20.2821 26.8693C20.4408 27.323 20.7361 27.7814 21.168 28.2446ZM20.9852 28.4151C20.5215 27.9178 20.2037 27.4255 20.0321 26.9384C19.8559 26.4464 19.802 25.9634 19.8704 25.4894C19.9389 25.0154 20.1153 24.5546 20.3998 24.107C20.6846 23.6499 21.0513 23.2123 21.4999 22.794L22.3044 22.0438C22.5872 21.7801 22.8688 21.5493 23.1493 21.3516C23.4301 21.1444 23.7402 20.9784 24.0794 20.8534C24.4141 20.7236 24.7873 20.6399 25.199 20.6024C25.611 20.5555 26.0895 20.5651 26.6343 20.6313C27.0583 20.6461 27.5092 20.768 27.9871 20.997C28.4649 21.2259 28.9107 21.5622 29.3245 22.0059C29.7837 22.4984 30.0991 22.9881 30.2708 23.4753C30.4473 23.9578 30.4991 24.4337 30.4261 24.9028C30.3626 25.3723 30.1885 25.8308 29.904 26.2785C29.629 26.7264 29.2696 27.1572 28.8259 27.571L28.0214 28.3212C27.5241 28.7849 27.0086 29.1608 26.475 29.4488C25.9413 29.7367 25.4083 29.8738 24.8757 29.8599C24.3705 29.8753 23.9301 29.8575 23.5545 29.8067C23.1744 29.7509 22.8331 29.6636 22.5307 29.5445C22.2331 29.4209 21.9602 29.2652 21.7121 29.0772C21.4639 28.8893 21.2216 28.6686 20.9852 28.4151ZM25.9122 25.9126C26.1023 25.7353 26.2668 25.55 26.4056 25.3568C26.5448 25.1541 26.6392 24.9475 26.689 24.737C26.7389 24.5264 26.7344 24.3164 26.6757 24.1068C26.6173 23.8878 26.4903 23.6734 26.2948 23.4638C26.1857 23.3468 26.0711 23.2531 25.9509 23.1829C25.6964 23.3108 25.4522 23.4839 25.2181 23.7021L24.4136 24.4523C24.2186 24.6342 24.0515 24.8265 23.9124 25.0291C23.7732 25.2318 23.6763 25.4407 23.6216 25.6558C23.5718 25.8663 23.5761 26.0811 23.6345 26.3001C23.6929 26.5191 23.8221 26.7359 24.0222 26.9504C24.1313 27.0674 24.232 27.1558 24.3242 27.2157C24.4584 27.1543 24.5909 27.0764 24.7215 26.9819C24.8522 26.8874 24.9809 26.7811 25.1077 26.6628L25.9122 25.9126ZM33.8227 20.4775L30.215 16.6086L27.7649 18.8933L27.3489 18.4472L32.6951 13.4618L33.1111 13.9079L30.6538 16.1994L34.2616 20.0683L33.8227 20.4775ZM35.0457 20.1028L31.4379 16.2339L33.8953 13.9424L32.7154 12.6772L26.5648 18.4128L27.7446 19.678L30.1946 17.3933L33.8024 21.2622L35.0457 20.1028ZM27.7323 20.0313L26.2114 18.4004L32.7278 12.3238L34.1396 12.4156L35.6196 14.0026L33.1622 16.2941L36.77 20.163L35.2049 21.6225L33.7901 21.6155L30.8438 18.4561L29.1471 20.0383L27.7323 20.0313Z" fill="#FF0000"/>
</g>
<defs>
<filter id="filter0_d_82_107" x="9.51953" y="11.6623" width="30.708" height="30.5805" filterUnits="userSpaceOnUse" color-interpolation-filters="sRGB">
<feFlood flood-opacity="0" result="BackgroundImageFix"/>
<feColorMatrix in="SourceAlpha" type="matrix" values="0 0 0 0 0 0 0 0 0 0 0 0 0 0 0 0 0 0 127 0" result="hardAlpha"/>
<feOffset dy="2"/>
<feGaussianBlur stdDeviation="0.5"/>
<feComposite in2="hardAlpha" operator="out"/>
<feColorMatrix type="matrix" values="0 0 0 0 0 0 0 0 0 0 0 0 0 0 0 0 0 0 0.25 0"/>
<feBlend mode="normal" in2="BackgroundImageFix" result="effect1_dropShadow_82_107"/>
<feBlend mode="normal" in="SourceGraphic" in2="effect1_dropShadow_82_107" result="shape"/>
</filter>
</defs>
</svg>
